<svg width="633" height="435" viewBox="0 0 633 435" fill="none" xmlns="http://www.w3.org/2000/svg">
<path d="M32.9672 433.983C32.9672 433.983 -26.494 391.327 18.6736 330.273C63.8412 269.219 58.3893 247.768 17.3566 184.938C-23.6761 122.108 16.1212 76.1642 77.369 82.29C138.617 88.4158 167.725 39.4094 210.605 16.4376C253.486 -6.53417 306.086 -7.59598 362.444 35.0498C418.801 77.6957 515.344 14.9062 562.819 48.5981C610.294 82.29 565.616 129.663 557.806 159.475C549.995 189.287 563.166 225.634 602.596 263.134C665.896 323.279 608.721 433.35 608.721 433.35L32.9672 433.983Z" fill="#007DF1" fill-opacity="0.1"/>
<path d="M178.159 414.533V433.983" stroke="#007DF1" stroke-opacity="0.25" stroke-width="17"/>
<path d="M204.194 399.576V433.983" stroke="#007DF1" stroke-opacity="0.25" stroke-width="17"/>
<path d="M230.228 369.927V433.983" stroke="#007DF1" stroke-opacity="0.25" stroke-width="17"/>
<path d="M256.263 388.989V433.983" stroke="#007DF1" stroke-opacity="0.25" stroke-width="17"/>
<path d="M282.298 406.039V433.983" stroke="#007DF1" stroke-opacity="0.25" stroke-width="17"/>
<path d="M308.332 365.169V433.983" stroke="#007DF1" stroke-opacity="0.25" stroke-width="17"/>
<path d="M334.367 395.829V433.983" stroke="#007DF1" stroke-opacity="0.25" stroke-width="17"/>
<path d="M360.402 362.821V433.983" stroke="#007DF1" stroke-opacity="0.25" stroke-width="17"/>
<path d="M386.437 315.704V433.983" stroke="#007DF1" stroke-opacity="0.25" stroke-width="17"/>
<path d="M412.471 342.708V433.983" stroke="#007DF1" stroke-opacity="0.25" stroke-width="17"/>
<path d="M438.506 315.704V433.983" stroke="#007DF1" stroke-opacity="0.25" stroke-width="17"/>
<path d="M464.541 373.756V433.431" stroke="#007DF1" stroke-opacity="0.25" stroke-width="17"/>
<path d="M490.575 328.701V433.983" stroke="#007DF1" stroke-opacity="0.25" stroke-width="17"/>
<path d="M516.61 268.515V433.983" stroke="#007DF1" stroke-opacity="0.25" stroke-width="17"/>
<path d="M542.645 318.879V433.983" stroke="#007DF1" stroke-opacity="0.25" stroke-width="17"/>
<path d="M568.679 261.674V433.983" stroke="#007DF1" stroke-opacity="0.25" stroke-width="17"/>
<path d="M543.604 205.49L539.479 209.615L476.823 272.272H398.086L330.589 339.758H225.021L130.745 434.034H95.8689L214.812 315.101H320.369L387.866 247.605H466.603L522.041 192.177L526.166 188.052L534.885 196.771L543.604 205.49Z" fill="#9CC7ED"/>
<path d="M592.519 139.137L488.012 180.007L534.885 196.771L551.649 243.644L592.519 139.137Z" fill="#9CC7ED"/>
<rect x="149.235" y="68.6499" width="334.52" height="220.835" rx="14.02" fill="white" stroke="#9CC7ED" stroke-width="5"/>
<path d="M195.924 249.607V260.674" stroke="#9CC7ED" stroke-width="0.76" stroke-linecap="round" stroke-linejoin="round" stroke-dasharray="0"/>
<path d="M239.325 218.724V260.674" stroke="#9CC7ED" stroke-width="0.76" stroke-linecap="round" stroke-linejoin="round" stroke-dasharray="0"/>
<path d="M284.615 193.269V261.674" stroke="#9CC7ED" stroke-width="0.76" stroke-linecap="round" stroke-linejoin="round" stroke-dasharray="0"/>
<path d="M331.447 236.15V261.674" stroke="#9CC7ED" stroke-width="0.76" stroke-linecap="round" stroke-linejoin="round" stroke-dasharray="0"/>
<path d="M377.033 177.567V261.674" stroke="#9CC7ED" stroke-width="0.76" stroke-linecap="round" stroke-linejoin="round" stroke-dasharray="0"/>
<path d="M422.63 222.724V261.674" stroke="#9CC7ED" stroke-width="0.76" stroke-linecap="round" stroke-linejoin="round" stroke-dasharray="0"/>
<path d="M468.563 162.916V261.674" stroke="#9CC7ED" stroke-width="0.76" stroke-linecap="round" stroke-linejoin="round" stroke-dasharray="0"/>
<path d="M175.362 121.505V141.955" stroke="#9CC7ED" stroke-width="7.37"/>
<path d="M186.909 112.511V141.955" stroke="#9CC7ED" stroke-width="7.37"/>
<path d="M171.543 145.958H190.748" stroke="#9CC7ED" stroke-width="2.46"/>
<path d="M203.173 109.55V141.955" stroke="#9CC7ED" stroke-width="7.37"/>
<path d="M214.72 99.7281V141.955" stroke="#9CC7ED" stroke-width="7.37"/>
<path d="M199.344 145.958H218.559" stroke="#9CC7ED" stroke-width="2.46"/>
<path d="M230.974 109.55V141.955" stroke="#9CC7ED" stroke-width="7.37"/>
<path d="M242.521 118.953V141.955" stroke="#9CC7ED" stroke-width="7.37"/>
<path d="M227.155 145.958H246.36" stroke="#9CC7ED" stroke-width="2.46"/>
<path d="M258.785 125.753V141.955" stroke="#9CC7ED" stroke-width="7.37"/>
<path d="M270.332 119.77V141.955" stroke="#9CC7ED" stroke-width="7.37"/>
<path d="M254.956 145.958H274.171" stroke="#9CC7ED" stroke-width="2.46"/>
<path d="M286.586 112.511V141.955" stroke="#9CC7ED" stroke-width="7.37"/>
<path d="M298.133 101.944V141.955" stroke="#9CC7ED" stroke-width="7.37"/>
<path d="M282.767 145.958H301.972" stroke="#9CC7ED" stroke-width="2.46"/>
<path d="M314.397 114.042V141.955" stroke="#9CC7ED" stroke-width="7.37"/>
<path d="M325.944 127.233V141.955" stroke="#9CC7ED" stroke-width="7.37"/>
<path d="M310.568 145.958H329.783" stroke="#9CC7ED" stroke-width="2.46"/>
<path d="M342.198 110.775V141.955" stroke="#9CC7ED" stroke-width="7.37"/>
<path d="M353.745 117.319V141.955" stroke="#9CC7ED" stroke-width="7.37"/>
<path d="M338.379 145.958H357.584" stroke="#9CC7ED" stroke-width="2.46"/>
<path d="M370.009 117.319V141.955" stroke="#9CC7ED" stroke-width="7.37"/>
<path d="M381.556 125.753V141.955" stroke="#9CC7ED" stroke-width="7.37"/>
<path d="M366.18 145.958H385.395" stroke="#9CC7ED" stroke-width="2.46"/>
<path d="M397.81 112.511V141.955" stroke="#9CC7ED" stroke-width="7.37"/>
<path d="M409.357 102.587V141.955" stroke="#9CC7ED" stroke-width="7.37"/>
<path d="M393.992 145.958H413.196" stroke="#9CC7ED" stroke-width="2.46"/>
<path d="M425.611 114.042V141.955" stroke="#9CC7ED" stroke-width="7.37"/>
<path d="M437.168 107.242V141.955" stroke="#9CC7ED" stroke-width="7.37"/>
<path d="M421.792 145.958H441.007" stroke="#9CC7ED" stroke-width="2.46"/>
<path d="M453.422 97.4615V141.955" stroke="#9CC7ED" stroke-width="7.37"/>
<path d="M464.969 104.445V141.955" stroke="#9CC7ED" stroke-width="7.37"/>
<path d="M449.594 145.958H468.808" stroke="#9CC7ED" stroke-width="2.46"/>
<path d="M171.543 162.916H190.748" stroke="#9CC7ED" stroke-width="2.4"/>
<path d="M171.543 177.026H190.748" stroke="#9CC7ED" stroke-width="2.4"/>
<path d="M171.543 191.135H190.748" stroke="#9CC7ED" stroke-width="2.4"/>
<path d="M171.543 205.245H190.748" stroke="#9CC7ED" stroke-width="2.4"/>
<path d="M171.543 219.355H190.748" stroke="#9CC7ED" stroke-width="2.4"/>
<path d="M171.543 233.455H190.748" stroke="#9CC7ED" stroke-width="2.4"/>
<path d="M171.543 247.564H190.748" stroke="#9CC7ED" stroke-width="2.4"/>
<path d="M171.543 261.674H190.748" stroke="#9CC7ED" stroke-width="2.4"/>
<path d="M194.688 247.564C217.487 247.564 217.487 216.935 240.285 216.935C263.083 216.935 263.063 192.197 285.851 192.197C308.639 192.197 308.649 233.495 331.447 233.495C354.245 233.495 354.235 177.067 377.033 177.067C399.832 177.067 399.832 220.008 422.63 220.008C445.428 220.008 445.438 162.957 468.236 162.957" stroke="#9CC7ED" stroke-width="2.4"/>
<path d="M198.435 247.513C198.43 246.121 197.296 244.996 195.903 245.002C194.511 245.007 193.386 246.141 193.392 247.534C193.398 248.926 194.531 250.051 195.924 250.045C196.593 250.043 197.233 249.774 197.704 249.299C198.175 248.825 198.438 248.182 198.435 247.513Z" fill="#9CC7ED"/>
<path d="M241.837 216.823C241.831 215.43 240.698 214.306 239.305 214.311C237.912 214.317 236.788 215.451 236.793 216.843C236.799 218.236 237.932 219.36 239.325 219.355C239.995 219.355 240.637 219.087 241.108 218.612C241.58 218.137 241.842 217.492 241.837 216.823Z" fill="#9CC7ED"/>
<path d="M287.127 192.36C287.127 191.34 286.511 190.419 285.568 190.03C284.624 189.64 283.539 189.858 282.818 190.581C282.098 191.304 281.885 192.391 282.278 193.333C282.672 194.275 283.594 194.886 284.615 194.882C286.004 194.877 287.127 193.749 287.127 192.36Z" fill="#9CC7ED"/>
<path d="M333.959 233.454C333.953 232.062 332.819 230.937 331.427 230.943C330.034 230.949 328.909 232.082 328.915 233.475C328.921 234.868 330.054 235.992 331.447 235.986C332.116 235.984 332.756 235.715 333.227 235.241C333.698 234.766 333.961 234.123 333.959 233.454Z" fill="#9CC7ED"/>
<path d="M379.555 177.026C379.555 175.633 378.426 174.504 377.033 174.504C375.641 174.504 374.511 175.633 374.511 177.026C374.511 178.418 375.641 179.547 377.033 179.547C378.424 179.542 379.549 178.416 379.555 177.026Z" fill="#9CC7ED"/>
<path d="M425.151 219.968C425.151 218.575 424.022 217.446 422.63 217.446C421.237 217.446 420.108 218.575 420.108 219.968C420.108 221.36 421.237 222.489 422.63 222.489C424.02 222.484 425.146 221.358 425.151 219.968Z" fill="#C3E6DD"/>
<path d="M470.748 162.916C470.748 161.895 470.132 160.975 469.189 160.585C468.245 160.195 467.16 160.413 466.439 161.136C465.719 161.86 465.506 162.946 465.899 163.888C466.293 164.83 467.216 165.442 468.236 165.438C469.625 165.432 470.748 164.305 470.748 162.916Z" fill="#9CC7ED"/>
<path d="M193.402 261.674H468.216" stroke="#9CC7ED" stroke-width="2.4"/>
<rect x="293.661" y="275.661" width="4.41058" height="4.41058" fill="#9CC7ED"/>
<rect x="307.414" y="275.661" width="4.41058" height="4.41058" fill="#9CC7ED"/>
<rect x="321.176" y="275.661" width="4.41058" height="4.41058" fill="#9CC7ED"/>
<rect x="334.939" y="275.661" width="4.41058" height="4.41058" fill="#9CC7ED"/>
<path d="M8.16797 433.983H624.832" stroke="#9CC7ED" stroke-linecap="round"/>
<path fill-rule="evenodd" clip-rule="evenodd" d="M98.8095 305.667C98.8095 307.291 97.493 308.608 95.8691 308.608C94.2452 308.608 92.9287 307.291 92.9287 305.667C92.9287 304.044 94.2452 302.727 95.8691 302.727C97.493 302.727 98.8095 304.044 98.8095 305.667Z" stroke="#C3E6DD" stroke-width="2" stroke-linecap="round" stroke-linejoin="round"/>
<path fill-rule="evenodd" clip-rule="evenodd" d="M217.66 33.5082C217.66 34.7026 216.94 35.7791 215.836 36.2352C214.733 36.6913 213.463 36.437 212.62 35.591C211.777 34.745 211.527 33.4742 211.987 32.372C212.447 31.2698 213.526 30.5535 214.72 30.5576C215.502 30.5576 216.251 30.8688 216.803 31.4225C217.354 31.9761 217.663 32.7266 217.66 33.5082Z" stroke="#9CC7ED" stroke-width="2" stroke-linecap="round" stroke-linejoin="round"/>
<path fill-rule="evenodd" clip-rule="evenodd" d="M551.2 139.342C551.2 140.536 550.48 141.613 549.376 142.069C548.272 142.525 547.003 142.27 546.16 141.424C545.316 140.578 545.067 139.308 545.526 138.205C545.986 137.103 547.065 136.387 548.26 136.391C549.041 136.391 549.791 136.702 550.343 137.256C550.894 137.81 551.203 138.56 551.2 139.342Z" stroke="#9CC7ED" stroke-width="2" stroke-linecap="round" stroke-linejoin="round"/>
<path fill-rule="evenodd" clip-rule="evenodd" d="M546.545 264.625C546.539 266.247 545.22 267.559 543.597 267.555C541.975 267.551 540.662 266.234 540.664 264.611C540.666 262.988 541.982 261.674 543.604 261.674C544.386 261.674 545.135 261.985 545.687 262.539C546.239 263.093 546.547 263.843 546.545 264.625Z" stroke="#C3E6DD" stroke-width="2" stroke-linecap="round" stroke-linejoin="round"/>
<path fill-rule="evenodd" clip-rule="evenodd" d="M268.167 365.17C268.167 366.364 267.447 367.44 266.344 367.897C265.24 368.353 263.97 368.098 263.127 367.252C262.284 366.406 262.034 365.136 262.494 364.033C262.954 362.931 264.033 362.215 265.227 362.219C266.009 362.219 266.758 362.53 267.31 363.084C267.862 363.637 268.17 364.388 268.167 365.17V365.17Z" stroke="#C3E6DD" stroke-width="2" stroke-linecap="round" stroke-linejoin="round"/>
<path d="M57.9094 193.821V199.712" stroke="#C3E6DD" stroke-width="2" stroke-linecap="round" stroke-linejoin="round"/>
<path d="M60.86 196.771H54.969" stroke="#C3E6DD" stroke-width="2" stroke-linecap="round" stroke-linejoin="round"/>
<path d="M423.722 27.6172V33.5082" stroke="#9CC7ED" stroke-width="2" stroke-linecap="round" stroke-linejoin="round"/>
<path d="M426.673 30.5576H420.782" stroke="#9CC7ED" stroke-width="2" stroke-linecap="round" stroke-linejoin="round"/>
<path d="M277.05 14.5896L281.215 18.7551" stroke="#9CC7ED" stroke-width="2" stroke-linecap="round" stroke-linejoin="round"/>
<path d="M281.215 14.5896L277.05 18.7551" stroke="#9CC7ED" stroke-width="2" stroke-linecap="round" stroke-linejoin="round"/>
<path d="M590.14 197.537V203.428" stroke="#9CC7ED" stroke-width="2" stroke-linecap="round" stroke-linejoin="round"/>
<path d="M593.08 200.477H587.189" stroke="#9CC7ED" stroke-width="2" stroke-linecap="round" stroke-linejoin="round"/>
<path d="M32.0076 112.848V118.739" stroke="#C3E6DD" stroke-width="2" stroke-linecap="round" stroke-linejoin="round"/>
<path d="M34.9479 115.788H29.0569" stroke="#C3E6DD" stroke-width="2" stroke-linecap="round" stroke-linejoin="round"/>
<rect x="75.8682" y="122.884" width="44.4121" height="51.0484" rx="3" fill="white" stroke="#9CC7ED" stroke-width="1.89"/>
<circle cx="98.0674" cy="145.006" r="13.9566" transform="rotate(-8.35 98.0674 145.006)" stroke="#9CC7ED" stroke-width="4"/>
<circle cx="98.0743" cy="144.998" r="6.12581" stroke="#9CC7ED" stroke-width="4"/>
<path d="M84.1279 166.305H96.3183" stroke="#9CC7ED" stroke-width="1.84" stroke-linecap="round"/>
<path d="M99.8406 166.305H112.031" stroke="#9CC7ED" stroke-width="1.84" stroke-linecap="round"/>
<rect x="375.696" y="62.3199" width="19.378" height="25.3608" fill="#9CC7ED"/>
<path d="M385.395 40.5835L368.457 62.3199H402.323L385.395 40.5835Z" fill="#9CC7ED"/>
<rect x="353.163" y="89.0182" width="8.85179" height="11.5778" fill="#9CC7ED"/>
<path d="M357.584 79.0944L349.855 89.0182H365.323L357.584 79.0944Z" fill="#9CC7ED"/>
<rect x="406.978" y="83.6173" width="4.76792" height="6.23811" fill="#9CC7ED"/>
<path d="M409.357 78.2675L405.192 83.6173H413.533L409.357 78.2675Z" fill="#9CC7ED"/>
<rect x="59.0427" y="35.3663" width="128.336" height="66.5773" rx="5.89" fill="white" stroke="#9CC7ED" stroke-width="2"/>
<path d="M132.307 55.0914H178.026" stroke="#9CC7ED" stroke-width="3.49" stroke-linecap="round" stroke-linejoin="round"/>
<path d="M132.307 64.1372H156.269" stroke="#9CC7ED" stroke-width="3.49" stroke-linecap="round" stroke-linejoin="round"/>
<path d="M132.307 73.1728H170.165" stroke="#9CC7ED" stroke-width="3.49" stroke-linecap="round" stroke-linejoin="round"/>
<path d="M132.307 82.2084H156.269" stroke="#9CC7ED" stroke-width="3.49" stroke-linecap="round" stroke-linejoin="round"/>
<path d="M81.0037 51.6917C74.148 58.6027 72.1313 68.9634 75.8942 77.9413C79.6572 86.9193 88.4586 92.7457 98.1931 92.7031C107.928 92.6605 116.678 86.7573 120.362 77.7467L98.0743 68.6499L81.0037 51.6917Z" fill="#9CC7ED"/>
<path d="M113.328 50.0274C103.736 42.1441 89.7218 42.8517 80.9731 51.661L98.0437 68.6192L113.328 50.0274Z" fill="#9CC7ED" fill-opacity="0.5"/>
<path d="M113.327 50.0275L98.0129 68.6193L120.301 77.7161C124.281 67.9547 121.456 56.7394 113.327 50.0275V50.0275Z" fill="#006ED4" fill-opacity="0.5"/>
<circle cx="522.608" cy="72.2019" r="22.6961" transform="rotate(-8.16 522.608 72.2019)" stroke="#9CC7ED" stroke-width="1.89"/>
<path d="M530.581 76.146C530.368 77.6311 529.643 78.8532 528.405 79.8123C527.187 80.7563 525.562 81.2632 523.532 81.3328L523.109 84.2764L519.37 83.7403L519.773 80.9293C518.458 80.6684 517.214 80.2826 516.042 79.7718C514.888 79.2635 513.949 78.7048 513.224 78.0957L515.894 73.8235C516.704 74.4629 517.635 75.0203 518.685 75.4957C519.738 75.9534 520.768 76.2546 521.776 76.399C522.642 76.5233 523.273 76.5324 523.667 76.4266C524.063 76.303 524.286 76.0733 524.334 75.7374C524.39 75.3484 524.184 75.0212 523.717 74.7558C523.267 74.4929 522.502 74.1666 521.421 73.7771C520.032 73.2712 518.885 72.7819 517.978 72.3091C517.074 71.8186 516.324 71.1337 515.729 70.2544C515.136 69.3575 514.936 68.2372 515.128 66.8936C515.351 65.3378 516.1 64.0829 517.373 63.1288C518.664 62.1772 520.383 61.702 522.53 61.7032L522.945 58.8126L526.684 59.3488L526.277 62.1863C528.371 62.6849 530.091 63.4549 531.44 64.4963L528.907 68.761C527.218 67.5806 525.56 66.8738 523.933 66.6405C522.324 66.4099 521.464 66.6834 521.353 67.4613C521.299 67.8326 521.498 68.1497 521.947 68.4126C522.399 68.6578 523.158 68.9651 524.224 69.3344C525.6 69.8024 526.749 70.2829 527.67 70.7759C528.595 71.2513 529.355 71.9286 529.95 72.8079C530.564 73.6897 530.774 74.8024 530.581 76.146Z" fill="#9CC7ED"/>
<circle cx="512.919" cy="131.54" r="15.7433" transform="rotate(-60.4 512.919 131.54)" stroke="#9CC7ED" stroke-width="1.89"/>
<path d="M519.159 131.824C519.441 132.826 519.323 133.805 518.807 134.76C518.3 135.701 517.412 136.478 516.143 137.092L516.702 139.078L514.18 139.787L513.647 137.891C512.739 138.095 511.842 138.199 510.955 138.204C510.081 138.206 509.328 138.115 508.698 137.932L509.192 134.473C509.885 134.651 510.632 134.744 511.432 134.75C512.228 134.745 512.966 134.647 513.645 134.456C514.23 134.291 514.632 134.12 514.852 133.943C515.069 133.753 515.146 133.545 515.082 133.318C515.008 133.056 514.786 132.906 514.415 132.869C514.056 132.828 513.479 132.836 512.685 132.892C511.662 132.961 510.797 132.973 510.089 132.928C509.378 132.87 508.71 132.646 508.086 132.256C507.458 131.853 507.016 131.199 506.762 130.293C506.466 129.244 506.589 128.238 507.129 127.275C507.681 126.309 508.638 125.525 510 124.924L509.451 122.974L511.973 122.265L512.511 124.179C513.979 123.907 515.287 123.913 516.434 124.195L516.024 127.61C514.622 127.336 513.372 127.353 512.275 127.661C511.19 127.967 510.721 128.381 510.869 128.906C510.939 129.156 511.154 129.302 511.513 129.343C511.868 129.371 512.436 129.353 513.215 129.288C514.219 129.199 515.083 129.181 515.806 129.235C516.525 129.277 517.197 129.494 517.822 129.884C518.458 130.271 518.904 130.918 519.159 131.824Z" fill="#9CC7ED"/>
<path fill-rule="evenodd" clip-rule="evenodd" d="M564.095 113.817C562.74 118.909 558.448 122.681 553.225 123.373C548.002 124.065 542.877 121.54 540.242 116.977C537.608 112.414 537.984 106.713 541.195 102.535C544.407 98.3579 549.819 96.5283 554.906 97.9006C561.831 99.7687 565.94 106.886 564.095 113.817Z" stroke="#9CC7ED" stroke-width="1.89"/>
<path d="M555.764 113.22C555.542 114.051 555.045 114.697 554.275 115.158C553.517 115.612 552.558 115.79 551.397 115.691L550.955 117.337L548.864 116.777L549.285 115.204C548.554 114.966 547.872 114.661 547.24 114.29C546.618 113.922 546.121 113.54 545.751 113.144L547.562 110.894C547.98 111.313 548.471 111.694 549.037 112.037C549.605 112.369 550.171 112.611 550.735 112.762C551.219 112.892 551.578 112.94 551.809 112.907C552.043 112.864 552.186 112.748 552.236 112.56C552.294 112.343 552.2 112.142 551.952 111.959C551.714 111.779 551.301 111.541 550.712 111.245C549.956 110.862 549.336 110.505 548.852 110.174C548.371 109.833 547.991 109.392 547.712 108.851C547.436 108.3 547.398 107.648 547.6 106.897C547.833 106.026 548.345 105.363 549.135 104.907C549.935 104.453 550.946 104.3 552.168 104.448L552.602 102.831L554.694 103.391L554.268 104.979C555.426 105.406 556.353 105.962 557.049 106.647L555.316 108.901C554.435 108.114 553.539 107.598 552.63 107.354C551.729 107.113 551.221 107.21 551.104 107.645C551.049 107.853 551.14 108.047 551.378 108.227C551.618 108.398 552.029 108.625 552.611 108.908C553.362 109.268 553.983 109.62 554.474 109.964C554.968 110.298 555.354 110.735 555.633 111.276C555.922 111.82 555.966 112.468 555.764 113.22Z" fill="#9CC7ED"/>
<path d="M281.216 33.5082H330.457" stroke="#9CC7ED" stroke-width="2" stroke-linecap="round" stroke-linejoin="round"/>
<path d="M281.216 41.0224H314.795" stroke="#9CC7ED" stroke-width="2" stroke-linecap="round" stroke-linejoin="round"/>
<path d="M281.216 48.5369H304.075" stroke="#9CC7ED" stroke-width="2" stroke-linecap="round" stroke-linejoin="round"/>
<path d="M281.216 56.0614H295.397" stroke="#9CC7ED" stroke-width="2" stroke-linecap="round" stroke-linejoin="round"/>
<rect x="219.396" y="52.1306" width="7.54495" height="7.54495" fill="#9CC7ED"/>
<rect x="236.967" y="52.1306" width="7.54495" height="7.54495" fill="#9CC7ED"/>
<rect x="254.548" y="52.1306" width="7.54495" height="7.54495" fill="#9CC7ED"/>
<circle cx="36.857" cy="162.824" r="10.9754" fill="#007DF1" fill-opacity="0.25"/>
<circle cx="32.0075" cy="157.974" r="1.02097" fill="#FAFAFA"/>
<circle cx="36.8572" cy="157.974" r="1.02097" fill="#FAFAFA"/>
<circle cx="41.7068" cy="157.974" r="1.02097" fill="#FAFAFA"/>
<circle cx="32.0075" cy="162.824" r="1.02097" fill="#FAFAFA"/>
<circle cx="36.8572" cy="162.824" r="1.02097" fill="#FAFAFA"/>
<circle cx="41.7068" cy="162.824" r="1.02097" fill="#FAFAFA"/>
<circle cx="32.0075" cy="167.674" r="1.02097" fill="#FAFAFA"/>
<circle cx="36.8572" cy="167.674" r="1.02097" fill="#FAFAFA"/>
<circle cx="41.7068" cy="167.674" r="1.02097" fill="#FAFAFA"/>
<path fill-rule="evenodd" clip-rule="evenodd" d="M95.3584 257.978H99.3708C100.301 257.978 101.055 258.732 101.055 259.663V263.696C101.055 264.142 100.878 264.569 100.561 264.883C100.245 265.198 99.8166 265.373 99.3708 265.37H95.3584C94.6392 265.369 94.0009 265.83 93.7759 266.514C93.5212 267.3 93.2037 268.065 92.8264 268.801C92.503 269.444 92.6308 270.223 93.1429 270.73L95.9812 273.558C96.6367 274.216 96.6367 275.28 95.9812 275.937L93.1327 278.786C92.8183 279.103 92.39 279.281 91.9433 279.281C91.4965 279.281 91.0683 279.103 90.7538 278.786L87.9155 275.957C87.4087 275.445 86.6298 275.318 85.9859 275.641C85.2519 276.022 84.4868 276.339 83.6989 276.59C83.0179 276.816 82.5602 277.456 82.5657 278.173V282.185C82.5657 282.631 82.3879 283.059 82.0717 283.373C81.7554 283.687 81.3269 283.863 80.8811 283.86H76.8483C76.4024 283.863 75.9739 283.687 75.6577 283.373C75.3415 283.059 75.1637 282.631 75.1637 282.185V278.173C75.1691 277.456 74.7114 276.816 74.0304 276.59C73.2425 276.339 72.4774 276.022 71.7434 275.641C71.0995 275.318 70.3207 275.445 69.8138 275.957L66.9857 278.786C66.6713 279.103 66.243 279.281 65.7963 279.281C65.3495 279.281 64.9213 279.103 64.6069 278.786L61.7481 275.937C61.0926 275.28 61.0926 274.216 61.7481 273.558L64.5864 270.73C65.0985 270.223 65.2263 269.444 64.9029 268.801C64.5257 268.065 64.2081 267.3 63.9534 266.514C63.7284 265.83 63.0901 265.369 62.3709 265.37H58.3585C57.9136 265.373 57.4861 265.197 57.1715 264.883C56.8569 264.568 56.6814 264.141 56.6841 263.696V259.663C56.6814 259.217 56.8566 258.788 57.1709 258.472C57.4852 258.156 57.9127 257.978 58.3585 257.978H62.3709C63.0884 257.984 63.7276 257.526 63.9534 256.845C64.2045 256.057 64.5221 255.292 64.9029 254.558C65.2263 253.914 65.0985 253.135 64.5864 252.628L61.7481 249.79C61.0926 249.133 61.0926 248.069 61.7481 247.411L64.6069 244.563C65.2643 243.907 66.3282 243.907 66.9857 244.563L69.8138 247.401C70.3222 247.91 71.099 248.038 71.7434 247.718C72.4774 247.337 73.2425 247.019 74.0304 246.768C74.713 246.538 75.1704 245.896 75.1637 245.175V241.173C75.1637 240.726 75.3411 240.298 75.6571 239.982C75.973 239.666 76.4015 239.489 76.8483 239.489H80.8811C81.3279 239.489 81.7563 239.666 82.0723 239.982C82.3882 240.298 82.5657 240.726 82.5657 241.173V245.175C82.559 245.896 83.0163 246.538 83.6989 246.768C84.4868 247.019 85.2519 247.337 85.9859 247.718C86.6303 248.038 87.4071 247.91 87.9155 247.401L90.7538 244.563C91.4113 243.907 92.4752 243.907 93.1327 244.563L95.9812 247.411C96.6367 248.069 96.6367 249.133 95.9812 249.79L93.1429 252.628C92.6308 253.135 92.503 253.914 92.8264 254.558C93.2072 255.292 93.5249 256.057 93.7759 256.845C94.0018 257.526 94.6409 257.984 95.3584 257.978ZM71.1278 264.885C72.4269 268.013 75.4827 270.05 78.8698 270.046C81.0892 270.046 83.2176 269.164 84.786 267.593C86.3544 266.023 87.2342 263.894 87.2315 261.674C87.2315 258.287 85.1906 255.234 82.061 253.939C78.9314 252.643 75.3297 253.361 72.9361 255.758C70.5425 258.154 69.8288 261.757 71.1278 264.885Z" fill="#007DF1" fill-opacity="0.25"/>
<path fill-rule="evenodd" clip-rule="evenodd" d="M47.2404 240.663H49.7621C50.3101 240.679 50.7472 241.125 50.7525 241.673V244.215C50.7525 244.779 50.2954 245.236 49.7315 245.236H47.2097C46.7466 245.215 46.3273 245.509 46.1888 245.951C46.0294 246.446 45.8314 246.927 45.5966 247.391C45.3826 247.794 45.4618 248.289 45.7906 248.606L47.5773 250.382C47.7868 250.575 47.906 250.847 47.906 251.133C47.906 251.418 47.7868 251.69 47.5773 251.883L45.7804 253.68C45.5873 253.886 45.3175 254.003 45.0351 254.003C44.7526 254.003 44.4828 253.886 44.2898 253.68L42.5031 251.893C42.1869 251.564 41.691 251.485 41.2881 251.699C40.8245 251.934 40.3432 252.132 39.8485 252.291C39.4061 252.43 39.1127 252.849 39.1339 253.312V255.834C39.1339 256.398 38.6768 256.855 38.1129 256.855H35.5707C35.0068 256.855 34.5497 256.398 34.5497 255.834V253.312C34.5709 252.849 34.2774 252.43 33.835 252.291C33.3371 252.132 32.8524 251.934 32.3853 251.699C31.9824 251.485 31.4865 251.564 31.1703 251.893L29.3938 253.68C28.977 254.088 28.3099 254.088 27.893 253.68L26.0961 251.883C25.6875 251.466 25.6875 250.799 26.0961 250.382L27.8828 248.606C28.2151 248.292 28.2985 247.796 28.087 247.391C27.8488 246.927 27.6474 246.446 27.4846 245.951C27.346 245.509 26.9268 245.215 26.4637 245.236H23.9419C23.378 245.236 22.9209 244.779 22.9209 244.215V241.673C22.9209 241.109 23.378 240.652 23.9419 240.652H26.4432C26.9092 240.672 27.3294 240.374 27.4642 239.927C27.6392 239.436 27.8508 238.958 28.0972 238.498C28.3087 238.093 28.2253 237.597 27.893 237.283L26.1063 235.507C25.6977 235.09 25.6977 234.423 26.1063 234.006L27.9032 232.209C28.3201 231.8 28.9872 231.8 29.404 232.209L31.1805 233.996C31.4967 234.324 31.9926 234.404 32.3955 234.19C32.8626 233.955 33.3473 233.757 33.8453 233.597C34.2876 233.459 34.5811 233.04 34.5599 232.576V230.055C34.5599 229.491 35.017 229.034 35.5809 229.034H38.1435C38.7074 229.034 39.1645 229.491 39.1645 230.055V232.576C39.1433 233.04 39.4368 233.459 39.8792 233.597C40.3738 233.757 40.8551 233.955 41.3187 234.19C41.7216 234.404 42.2175 234.324 42.5337 233.996L44.3204 232.209C44.5134 232.003 44.7832 231.886 45.0657 231.886C45.3481 231.886 45.618 232.003 45.811 232.209L47.6079 234.006C47.8174 234.199 47.9366 234.471 47.9366 234.756C47.9366 235.041 47.8174 235.313 47.6079 235.507L45.8212 237.283C45.4924 237.599 45.4132 238.095 45.6272 238.498C45.8603 238.962 46.0582 239.444 46.2194 239.938C46.3542 240.384 46.7744 240.682 47.2404 240.663ZM31.9723 245.005C32.7919 246.978 34.7203 248.263 36.8571 248.259C38.2543 248.259 39.5943 247.703 40.5823 246.715C41.5703 245.728 42.1253 244.388 42.1253 242.99C42.1294 240.854 40.8449 238.925 38.8716 238.105C36.8982 237.286 34.6254 237.737 33.1145 239.248C31.6036 240.759 31.1526 243.031 31.9723 245.005Z" fill="#007DF1" fill-opacity="0.25"/>
<path d="M225.409 304.34L229.269 301.329L225.409 298.317" stroke="#C3E6DD" stroke-width="2" stroke-linecap="round" stroke-linejoin="round"/>
<path d="M237.396 304.34L241.255 301.329L237.396 298.317" stroke="#C3E6DD" stroke-width="2" stroke-linecap="round" stroke-linejoin="round"/>
<path d="M249.372 304.34L253.241 301.329L249.372 298.317" stroke="#C3E6DD" stroke-width="2" stroke-linecap="round" stroke-linejoin="round"/>
<path d="M261.358 304.34L265.227 301.329L261.358 298.317" stroke="#C3E6DD" stroke-width="2" stroke-linecap="round" stroke-linejoin="round"/>
<path d="M467.246 424.273L477.221 423.977L475.434 409.459L466.205 410.868L467.246 424.273Z" fill="#FFC29F"/>
<path d="M480.672 433.431C481.815 429.613 479.14 426.826 478.293 423.457C477.772 421.415 467.317 420.087 466.276 424.641C465.693 427.537 465.627 430.513 466.082 433.431H480.672Z" fill="#213F3B"/>
<path d="M411.695 424.641H421.915L422.926 408.081L412.941 407.458L411.695 424.641Z" fill="#FFC29F"/>
<path d="M421.915 423.457H412.389C412.389 423.457 411.369 423.457 408.214 426.734C405.059 430.011 397.626 426.877 394.206 433.431H422.681C422.681 433.431 425.489 428.214 421.915 423.457Z" fill="#213F3B"/>
<path d="M458.415 155.034C459.492 153.929 460.32 152.606 460.845 151.154C461.355 149.677 461.148 148.046 460.283 146.744C459.578 145.855 458.598 145.227 457.496 144.957C456.44 144.544 455.241 144.748 454.382 145.488C453.846 146.212 453.625 147.121 453.769 148.01C454.045 149.668 454.216 151.343 454.28 153.023C454.229 154.044 453.984 154.963 453.994 155.943C453.994 156.77 454.453 158.914 455.576 158.087C456.62 157.165 457.571 156.142 458.415 155.034Z" fill="#213F3B"/>
<path d="M465.868 252.21L478.119 418.097H465.868L444.56 297.377L423.916 418.097H411.807L423.038 252.21H465.868Z" fill="#2C6A65"/>
<path d="M392.94 190.145C392.94 190.145 390.51 186.225 390.898 184.019C391.286 181.814 391.255 179.16 390.051 177.659C388.846 176.158 389.162 174.381 387.896 174.871C387.488 175.025 387.682 177.689 388.264 178.955C388.264 178.955 384.67 171.645 384.18 170.788C384.036 170.485 383.693 170.331 383.371 170.425C383.049 170.518 382.842 170.832 382.883 171.165C382.883 171.165 382.485 170.4 381.862 170.726C381.24 171.053 381.577 171.911 381.607 172.299C381.365 172.32 381.144 172.443 380.999 172.639C380.855 172.834 380.801 173.082 380.852 173.32C380.905 173.782 380.998 174.24 381.127 174.688C381.127 174.688 380.729 174.759 380.637 175.484C380.589 176.259 380.722 177.035 381.025 177.751C381.832 179.568 381.26 179.956 382.097 181.834C382.934 183.713 385.038 183.876 385.987 187.378C386.937 190.88 387.314 191.881 387.314 191.881L392.94 190.145Z" fill="#FFC29F"/>
<path d="M423.406 181.732C421.027 182.09 412.614 199.681 407.999 208.022L403.385 216.364L392.215 187.776C389.885 187.503 387.593 188.535 386.253 190.462C386.253 190.462 392.215 229.034 393.706 233.342C395.196 237.651 399.832 240.795 407.999 230.514C416.167 220.233 430.338 200.293 431.482 198.058C432.625 195.822 437.148 179.609 423.406 181.732Z" fill="#006ED4"/>
<path d="M468.624 217.211C464.734 237.885 465.868 252.179 465.868 252.179H423.038C423.038 252.179 421.262 185.346 422.242 183.08C424.028 178.996 441.987 173.289 441.987 173.289H457.189C457.189 173.289 469.645 176.934 472.504 177.679C473.341 177.904 473.678 179.629 473.637 182.488C473.535 189.369 471.33 202.631 468.624 217.211Z" fill="#007DF1"/>
<path d="M468.624 217.211C464.734 237.885 465.868 252.179 465.868 252.179H460.896C460.896 252.179 462.243 201.182 469.645 184.795C470.758 182.324 472.116 181.732 473.607 182.518C473.535 189.369 471.33 202.631 468.624 217.211Z" fill="#006ED4"/>
<path d="M454.688 158.556C454.688 158.556 454.259 168.766 456.046 172.942L450.135 179.394L445.979 178.629L444.458 177.853L443.386 174.729V158.556H454.688Z" fill="#FFA980"/>
<path d="M439.608 141.496C439.608 141.496 434.687 163.824 440.946 167.806C445.03 170.369 452.064 168.827 454.218 158.903C456.373 148.98 452.34 143.589 447.133 142.313C444.681 141.66 442.144 141.384 439.608 141.496Z" fill="#FFC29F"/>
<path d="M454.821 154.534C455.24 154.123 455.821 153.922 456.404 153.985C456.987 154.049 457.511 154.37 457.833 154.861C459.129 156.698 456.036 159.914 453.973 159.853L454.821 154.534Z" fill="#FFC29F"/>
<rect x="422.987" y="252.21" width="42.8806" height="3.75716" fill="#213F3B"/>
<path d="M444.56 297.377L440.823 273.191L441.426 315.704L444.56 297.377Z" fill="#20534E"/>
<path d="M431.247 234.731H379.494L367.099 200.671C366.851 199.998 366.945 199.245 367.35 198.653C367.756 198.061 368.423 197.702 369.141 197.69H416.167C417.084 197.707 417.896 198.287 418.209 199.15L431.247 234.731Z" fill="#213F3B"/>
<path d="M461.998 237.947H410.572C410.145 237.947 409.736 237.777 409.435 237.474C409.134 237.171 408.967 236.761 408.969 236.334C408.969 235.448 409.687 234.731 410.572 234.731H461.998C462.425 234.728 462.836 234.896 463.138 235.197C463.441 235.498 463.611 235.907 463.611 236.334C463.611 236.761 463.442 237.172 463.139 237.474C462.836 237.777 462.426 237.947 461.998 237.947Z" fill="#213F3B"/>
<path d="M431.083 237.947H379.657C378.766 237.947 378.044 237.225 378.044 236.334C378.044 235.907 378.214 235.498 378.517 235.197C378.82 234.896 379.23 234.728 379.657 234.731H431.083C431.968 234.731 432.686 235.448 432.686 236.334C432.689 236.761 432.521 237.171 432.22 237.474C431.919 237.777 431.51 237.947 431.083 237.947Z" fill="#213F3B"/>
<path d="M432.737 232.546C432.737 232.546 428.296 232.331 426.611 231.402C424.927 230.473 420.669 230.29 419.791 230.29C418.913 230.29 419.73 231.75 420.812 231.923C421.654 232.145 422.447 232.522 423.15 233.036C423.15 233.036 416.555 233.618 414.932 233.495C413.308 233.373 411.368 233.853 411.95 234.659C412.335 235.156 412.907 235.474 413.533 235.537C413.533 235.537 413.992 236.762 414.932 236.936C415.294 237.529 415.922 237.91 416.616 237.957C417.168 238.231 417.756 238.427 418.362 238.539C418.362 238.539 423.15 239.468 425.887 239.009C428.623 238.549 433.329 238.263 433.329 238.263L432.737 232.546Z" fill="#FFC29F"/>
<path d="M472.31 177.71C472.31 177.71 479.457 178.792 482.448 190.411C485.44 202.029 479.487 226.583 477.343 234.731C476.067 239.499 432.676 239.499 432.676 239.499C432.233 236.734 431.964 233.945 431.869 231.147C431.869 231.147 461.477 226.318 467.746 222.489C467.746 222.489 466.409 202.672 466.113 195.025C465.817 187.378 464.918 178.506 472.31 177.71Z" fill="#007DF1"/>
<path d="M443.386 171.87C443.386 171.87 443.386 176.454 445.979 178.628C444.323 179.972 442.883 181.563 441.712 183.345C441.14 180.018 441.233 176.61 441.987 173.319L443.386 171.87Z" fill="#006ED4"/>
<path d="M455.617 171.696C455.617 171.696 452.013 177.475 445.979 178.629C447.169 180.622 448.216 182.696 449.114 184.836C452.115 182.794 456.352 177.608 457.189 173.36L455.617 171.696Z" fill="#006ED4"/>
<path d="M451.135 147.428C450.867 148.391 450.961 149.419 451.4 150.317C451.903 151.069 452.531 151.729 453.259 152.267C453.985 152.814 454.489 153.604 454.678 154.493C456.36 153.725 457.882 152.644 459.16 151.307C460.45 149.94 461.057 148.066 460.814 146.203C460.495 144.458 459.234 143.034 457.541 142.506C455.847 141.979 454.001 142.435 452.748 143.691C452.421 144.088 452.194 144.557 452.085 145.059C451.809 145.886 451.349 146.59 451.135 147.428Z" fill="#213F3B"/>
<path d="M452.095 138.709C448.716 137.294 445.065 136.646 441.405 136.81C439.177 136.89 437.057 137.792 435.453 139.342C433.965 140.842 433.929 143.25 435.371 144.794C436.556 145.709 437.968 146.285 439.455 146.458C443.214 147.353 447.086 147.676 450.941 147.418C453.677 147.152 456.373 145.968 457.118 143.436C457.863 140.904 454.106 139.464 452.095 138.709Z" fill="#213F3B"/>
<path d="M161.599 423.865H168.756L169.695 413.298L160.956 412.43L161.599 423.865Z" fill="#FFC29F"/>
<path d="M161.599 423.865C161.599 423.865 159.802 426.142 160.527 431.196C160.874 433.585 166.081 433.431 174.882 433.431H181.732C181.732 433.431 184.285 430.675 180.231 429.419C170.338 426.356 168.786 423.865 168.786 423.865H161.599Z" fill="#213F3B"/>
<path d="M126.998 425.672L118.545 425.417L120.056 413.114L127.876 414.309L126.998 425.672Z" fill="#FFC29F"/>
<path d="M115.614 433.432C114.655 430.195 116.921 427.837 117.656 424.978C118.095 423.212 126.957 422.119 127.866 425.999C128.365 428.45 128.424 430.97 128.04 433.442L115.614 433.432Z" fill="#213F3B"/>
<path d="M165.938 168.817C165.938 168.817 170.512 170.195 170.155 176.658C169.797 183.121 168.184 186.286 170.083 193.045C171.982 199.804 173.064 208.696 161.446 207.941C149.827 207.185 146.356 206.215 142.435 208.492C138.515 210.769 127.621 200.794 132.889 193.984C138.158 187.174 140.424 183.172 139.424 177.23C138.423 171.288 142.987 165.53 150.246 163.753C156.341 162.334 168.572 161.67 165.938 168.817Z" fill="#213F3B"/>
<path d="M135.411 229.993C136.912 237.732 136.748 243.429 136.759 256.957H170.359C170.359 256.957 169.43 246.053 170.941 239.366C171.135 238.291 171.508 237.256 172.043 236.303C174.432 232.485 176.576 228.911 176.607 224.97C176.607 223.97 176.473 222.974 176.209 222.01C174.831 216.854 172.748 205.429 170.155 202.264C167.561 199.099 154.707 199.487 154.707 199.487C154.707 199.487 137.882 199.487 132.838 202.356C131.49 203.111 130.98 204.796 130.868 206.828C130.521 213.168 134.206 223.827 135.411 229.993Z" fill="#007DF1"/>
<path d="M140.383 232.679C140.383 232.679 163.927 234.578 170.941 239.366C171.136 238.291 171.508 237.256 172.044 236.303C174.433 232.485 176.577 228.911 176.607 224.97C175.045 228.207 171.063 232.505 160.935 232.638C144.651 232.873 140.383 232.679 140.383 232.679Z" fill="#006ED4"/>
<path d="M96.7368 210.432L93.9292 207.257C93.9292 207.257 92.1119 203.908 91.3155 202.693C90.148 201.269 88.886 199.925 87.5379 198.67C87.0581 198.119 86.6599 199.16 87.1806 200.13C87.7013 201.1 88.4772 203.193 88.4772 203.193C88.4772 203.193 83.0967 199.538 81.5142 198.619C79.9317 197.7 79.2375 198.405 79.36 198.803C79.36 198.803 78.339 199.599 79.1762 200.355C79.1762 200.355 78.3186 201.233 79.5131 202.182C79.5131 202.182 78.6249 203.06 80.3299 204.163C82.0349 205.266 83.0048 208.604 85.6287 209.635C88.298 210.749 90.6943 212.428 92.653 214.557L96.7368 210.432Z" fill="#FFC29F"/>
<path d="M140.383 203.673C141.113 210.541 139.486 217.454 135.768 223.275C129.5 232.627 122.047 242.521 117.391 242.98C112.735 243.44 90.9172 213.729 90.9172 213.729L96.1854 207.91L116.544 226.982C116.544 226.982 124.129 214.73 125.814 211.504C127.692 207.93 131.582 200.947 135.513 201.682C139.444 202.417 140.383 203.673 140.383 203.673Z" fill="#007DF1"/>
<path d="M205.296 205.439L208.094 202.243C208.094 202.243 209.921 198.895 210.708 197.68C211.878 196.258 213.14 194.914 214.485 193.657C214.975 193.116 215.363 194.147 214.853 195.117C214.342 196.087 213.546 198.18 213.546 198.18C213.546 198.18 218.926 194.525 220.509 193.606C222.091 192.687 222.796 193.392 222.673 193.79C222.673 193.79 223.643 194.586 222.857 195.342C222.857 195.342 223.704 196.23 222.52 197.169C222.52 197.169 223.398 198.047 221.693 199.15C219.988 200.253 219.018 203.591 216.405 204.622C213.731 205.734 211.331 207.413 209.37 209.543L205.296 205.439Z" fill="#FFC29F"/>
<path d="M160.639 206.868C160.639 206.868 164.835 210.952 172.666 218.834C179.731 225.91 187.491 230.422 191.432 227.951C195.373 225.481 212.872 207.103 212.872 207.103L207.553 201.856L189.257 217.558C189.257 217.558 177.24 206.062 174.729 204.194C172.217 202.325 163.763 198.691 161.109 201.672C158.454 204.653 160.639 206.868 160.639 206.868Z" fill="#007DF1"/>
<path d="M163.11 199.885C163.11 199.885 163.202 206.47 158.74 210.238C158.74 210.238 149.266 205.817 145.845 199.905C151.586 199.34 157.368 199.333 163.11 199.885Z" fill="#FFC29F"/>
<path d="M161.18 199.701C159.735 199.485 158.712 198.175 158.853 196.72C158.853 193.984 158.577 188.767 158.577 188.767L149.786 189.512C149.786 189.512 150.532 198.119 149.123 199.722L147.704 201.304C147.704 201.304 159.771 203.336 161.18 199.701Z" fill="#FFC29F"/>
<path d="M158.842 195.617C158.842 195.617 153.074 196.516 149.991 194.055L149.786 189.512L158.842 191.472V195.617Z" fill="#FFA980"/>
<path d="M165.948 172.544C165.948 172.544 170.798 194.617 159.71 195.526C148.622 196.434 147.908 184.928 147.908 184.928C147.908 184.928 145.212 183.907 145.11 181.426C145.008 178.945 148.173 180.405 148.173 180.405C148.173 180.405 146.478 171.369 153.37 169.328C160.568 167.102 165.019 169.328 165.948 172.544Z" fill="#FFC29F"/>
<path d="M165.264 169.787C165.264 169.787 161.18 181.263 148.122 180.313C148.122 180.313 145.907 171.502 148.643 168.256C151.379 165.009 162.109 164.212 165.264 169.787Z" fill="#213F3B"/>
<path d="M136.81 256.957C136.81 256.957 121.73 280.297 117.799 420.69H128.295C128.295 420.69 149.837 325.74 152.431 297.357C152.727 299.327 160.129 420.69 160.129 420.69H170.634C170.634 420.69 184.244 273.191 170.41 256.957H136.81Z" fill="#2C6A65"/>
<path d="M152.38 297.357L156.055 280.072L153.727 313.437L152.38 297.357Z" fill="#20534E"/>
<path d="M567.168 423.855C561.492 420.394 583.504 361.576 593.713 336.47C603.678 311.895 568.393 302.676 560.093 332.693C555.815 348.068 555.601 404.926 567.168 423.855Z" fill="#00DD41"/>
<path d="M567.168 423.855C567.168 423.855 555.509 366.344 579.175 325.045" stroke="white" stroke-width="1.06"/>
<path d="M549.097 354.01C531.332 328.823 513.628 349.457 525.41 366.864C537.192 384.272 567.27 423.671 567.27 423.671C567.27 423.671 566.872 379.198 549.097 354.01Z" fill="#00DD41"/>
<path d="M567.229 423.702C567.229 423.702 553.119 382.097 534.262 356.583" stroke="white"/>
<path d="M595.776 359.381C619.983 345.026 624.148 364.7 613.622 377.125C603.096 389.55 564.728 420.2 564.728 420.2C564.728 420.2 571.569 373.766 595.776 359.381Z" fill="#00B134"/>
<path d="M565.044 417.964C565.044 417.964 575.346 394.41 607.925 366.548" stroke="white"/>
<path d="M70.9267 354.276C84.1993 326.455 105.129 343.811 96.4509 362.954C87.7727 382.097 64.8009 425.999 64.8009 425.999C64.8009 425.999 57.6541 382.046 70.9267 354.276Z" fill="#00B134"/>
<path d="M64.801 425.948C64.801 425.948 71.6926 382.557 85.9861 354.225" stroke="white" stroke-width="1.06"/>
<path d="M37.7759 358.36C15.8251 340.748 8.93358 359.636 17.6118 373.419C26.29 387.202 59.982 422.936 59.982 422.936C59.982 422.936 59.6961 375.92 37.7759 358.36Z" fill="#00DD41"/>
<path d="M59.9514 420.639C59.9514 420.639 53.0905 395.829 24.728 363.669" stroke="white" stroke-width="1.06"/>
<path d="M62.2791 422.885C62.2791 422.885 37.3675 356.318 42.7276 328.752C48.0877 301.186 74.592 315.02 73.8263 333.908C73.0605 352.795 62.2791 422.885 62.2791 422.885Z" fill="#00DD41"/>
<path d="M62.2791 422.885C62.2791 422.885 58.9609 362.137 57.9399 328.701" stroke="white" stroke-width="1.06"/>
<rect x="553.099" y="414.533" width="24.5032" height="4.95169" fill="#006ED4"/>
<path d="M557.469 433.983H573.233L576.296 419.485H554.406L557.469 433.983Z" fill="#007DF1"/>
<rect x="50.6299" y="414.533" width="24.5032" height="4.95169" fill="#006ED4"/>
<path d="M70.7634 433.983H54.9997L51.9368 419.485H73.8263L70.7634 433.983Z" fill="#007DF1"/>
</svg>
